<svg width="213" height="97" viewBox="0 0 213 97" fill="none" xmlns="http://www.w3.org/2000/svg">
<path d="M63.1641 95.3253L1.82031 71.1886C1.82031 71.1886 1.82032 60.3359 1.82031 53.2383C1.82031 50.9781 2.5797 49.7309 3.6846 47.7591C7.82911 40.3629 57.4536 3.46328 57.4536 3.46328L63.1641 3.46687L138.987 1.62109" stroke="#E3E3E3" stroke-width="2.5"/>
<path fill-rule="evenodd" clip-rule="evenodd" d="M135.169 1.27306C131.922 1.59021 128.17 2.98376 125.233 4.9631C122.923 6.51956 108.917 17.9275 107.764 19.1913C107.539 19.4378 102.94 23.3018 100.797 25.0457C99.8802 25.7915 93.994 30.7617 91.4174 32.9664C90.1799 34.025 82.3378 40.5574 78.2165 43.9621C76.9371 45.0192 75.6501 46.1004 75.3568 46.3647C75.0635 46.629 73.5269 47.9034 71.9423 49.1961C66.2267 53.8597 64.1973 56.7761 63.1112 61.8856C62.7732 63.4786 62.5703 70.3632 62.5703 80.2662V96.1003H65.243C66.806 96.1003 67.7988 95.911 67.6339 95.6443C67.4786 95.394 67.5661 94.2584 67.8277 93.1215C68.0897 91.985 68.6421 89.1085 69.0556 86.7299C69.4691 84.3512 70.1282 80.7832 70.521 78.801C70.9134 76.8188 71.6634 72.8692 72.1875 70.024C73.6197 62.2537 74.8558 60.1744 81.171 54.9159C87.9885 49.2393 95.695 42.766 99.6047 39.4315C101.331 37.9587 103.795 35.889 105.08 34.8318C108.088 32.3576 120.138 22.309 121.708 20.965C122.37 20.3984 124.209 18.854 125.795 17.5325C127.381 16.211 128.75 14.9679 128.838 14.7694C128.927 14.571 132.664 14.409 137.144 14.409H145.29L153.091 20.9583C157.381 24.5604 161.566 28.0741 162.391 28.767C165.64 31.4955 186.622 49.0514 192.337 53.8236C198.009 58.5598 198.526 59.1374 200.507 62.9538C201.67 65.1946 202.791 68.109 202.997 69.4305C203.203 70.752 203.718 73.7549 204.141 76.1037C204.565 78.4526 205.011 81.3834 205.134 82.6169C205.257 83.85 205.579 85.9288 205.849 87.2363C206.728 91.4934 207.243 95.3017 206.994 95.7053C206.859 95.9225 207.952 96.1003 209.422 96.1003H212.095V79.5646C212.095 61.1816 211.881 59.5934 208.813 55.1365C207.886 53.79 201.356 47.9716 191.792 39.9731C183.259 32.8347 171.192 22.73 164.978 17.5186C148.975 4.09718 147.968 3.37587 143.342 2.01355C141.268 1.40231 137.415 1.05345 135.169 1.27306ZM136.611 7.0568C136.611 9.45564 136.433 11.0429 136.193 10.781C135.963 10.5301 134.771 8.81076 133.544 6.96069C131.36 3.66949 131.336 3.5902 132.399 3.28458C132.997 3.11255 134.19 2.95062 135.049 2.92419L136.611 2.87613V7.0568ZM143.215 3.54936C143.401 3.73629 139.724 9.31918 138.451 10.781C138.232 11.0318 138.054 9.3259 138.054 6.99001V2.74207L140.523 3.03471C141.881 3.19521 143.092 3.42682 143.215 3.54936ZM128.898 8.28218L128.878 11.7661L126.976 9.60365C125.931 8.41432 125.074 7.27592 125.074 7.07361C125.072 6.68197 127.952 4.80309 128.558 4.8002C128.756 4.79924 128.91 6.36579 128.898 8.28218ZM148.03 5.75408C148.889 6.27786 149.593 6.87659 149.593 7.08418C149.593 7.29225 148.913 8.28649 148.083 9.29322C146.949 10.6685 146.472 10.9645 146.167 10.484C145.663 9.69062 145.612 4.7978 146.107 4.8002C146.305 4.80116 147.171 5.23029 148.03 5.75408ZM133.413 9.18414C134.643 10.9357 135.65 12.5143 135.65 12.6921C135.65 12.8699 134.405 12.9506 132.885 12.8713C131.038 12.7747 130.137 12.5277 130.169 12.1265C130.195 11.7963 130.249 10.077 130.289 8.30619C130.329 6.50034 130.54 5.28698 130.769 5.5431C130.993 5.79395 132.183 7.43258 133.413 9.18414ZM144.742 11.4057L144.785 12.9674H141.86C140.194 12.9674 139.004 12.768 139.095 12.5046C139.183 12.25 140.337 10.5484 141.66 8.72331L144.063 5.4052L144.382 7.62432C144.557 8.84536 144.719 10.5465 144.742 11.4057ZM152.958 9.64641C152.958 9.95732 149.03 11.6051 148.811 11.386C148.74 11.3144 149.223 10.5652 149.884 9.72089C150.931 8.38451 151.207 8.26151 152.022 8.76992C152.537 9.0914 152.958 9.48591 152.958 9.64641ZM125.072 10.0842C125.637 10.8771 125.881 11.5258 125.614 11.5258C125.347 11.5258 124.995 11.3096 124.832 11.0453C124.669 10.781 124.142 10.5647 123.66 10.5647C122.493 10.5647 121.419 9.3158 122.288 8.96741C123.544 8.46381 124.068 8.67381 125.072 10.0842ZM127.413 13.7132C127.619 13.9093 126.936 14.5897 124.616 16.5041L122.957 17.8727L122.093 14.8194C121.618 13.1399 121.229 11.619 121.228 11.4393C121.227 11.1563 126.932 13.2543 127.413 13.7132ZM153.093 12.8473C152.936 13.8386 152.569 15.3509 152.276 16.2081L151.744 17.7665L149.49 15.9679C148.249 14.9784 147.226 14.0606 147.214 13.9285C147.203 13.7963 148.545 13.1116 150.196 12.4061C151.847 11.7012 153.239 11.1068 153.288 11.0847C153.338 11.063 153.25 11.8564 153.093 12.8473ZM120.669 14.5878C121.039 16.1 121.24 17.4383 121.117 17.5613C120.994 17.6848 120.048 17.4326 119.016 17.001C117.984 16.57 116.61 16.0155 115.962 15.7689L114.784 15.3211L116.924 13.4451C118.1 12.4138 119.273 11.6296 119.53 11.7036C119.787 11.7771 120.3 13.0751 120.669 14.5878ZM157.227 13.0981C158.184 13.9626 159.037 14.8631 159.12 15.0996C159.238 15.4311 154.392 17.7728 153.588 17.7728C153.496 17.7728 153.555 17.1779 153.718 16.4513C154.491 13.0217 154.942 11.5258 155.202 11.5258C155.358 11.5258 156.269 12.2331 157.227 13.0981ZM114.014 20.2985C114.364 21.8194 114.537 23.1774 114.398 23.3163C114.259 23.4551 112.807 22.9885 111.171 22.2792L108.197 20.9905L110.505 18.9439C111.774 17.8184 112.94 17.0404 113.096 17.2149C113.251 17.3898 113.665 18.7771 114.014 20.2985ZM118.055 18.0832L121.153 19.3547L118.665 21.4234C117.297 22.5608 116.129 23.3403 116.069 23.1553C115.653 21.865 114.617 16.8117 114.769 16.8117C114.872 16.8117 116.351 17.384 118.055 18.0832ZM159.842 18.3734C159.675 19.2326 159.302 20.767 159.013 21.7833L158.487 23.632L156.183 21.6041C154.915 20.4888 154.008 19.4465 154.167 19.2874C154.481 18.9741 159.227 16.9222 159.797 16.8535C159.989 16.8304 160.009 17.5142 159.842 18.3734ZM163.67 22.1942C162.142 22.9078 160.712 23.5027 160.492 23.5157C160.096 23.5392 160.303 22.0846 161.192 18.6051L161.654 16.7944L164.052 18.8453L166.45 20.8963L163.67 22.1942ZM132.766 22.4225C130.803 22.8372 125.922 25.2423 124.037 26.7238C122.405 28.0073 108.675 39.4887 107.46 40.5868C107.161 40.8573 106.079 41.7573 105.056 42.5867C99.098 47.4185 79.7339 63.8347 77.6386 65.8298C76.2616 67.1412 74.5553 69.4295 73.8029 70.9735C72.4634 73.7222 72.4442 73.888 72.1966 84.9288L71.9456 96.1018L74.4318 96.1013C76.8453 96.1004 76.9275 96.0552 77.2583 94.5386C78.1348 90.5237 82.4138 77.5521 83.7056 74.9952C85.0547 72.3238 87.6447 69.7799 94.5031 64.3892C95.0104 63.9904 96.3085 62.8866 97.3878 61.9365C98.4672 60.9865 99.8687 59.7972 100.502 59.2936C101.135 58.79 103.19 57.0711 105.069 55.4733C106.948 53.8755 110.433 50.9582 112.812 48.9899C118.324 44.4325 118.07 44.6449 124.514 39.1985L129.966 34.5916L137.495 34.6156L145.025 34.6401L155.843 43.7838C161.792 48.8126 167.492 53.6132 168.508 54.4517C170.904 56.4281 180.397 64.4007 183.488 67.0322C184.81 68.1581 186.794 69.8068 187.896 70.6962C190.326 72.6568 192.063 76.2316 194.522 84.3272C195.485 87.4987 196.587 90.9658 196.972 92.0316C197.357 93.098 197.671 94.4492 197.671 95.035C197.671 95.9999 197.91 96.1003 200.195 96.1008L202.719 96.1013L202.603 91.4156C202.54 88.8384 202.432 83.8053 202.363 80.2306C202.243 73.9557 202.183 73.6198 200.638 70.4843C199.057 67.2748 197.724 65.949 187.815 57.7275C187.286 57.2888 185.322 55.6338 183.449 54.05C181.577 52.4661 178.981 50.2845 177.68 49.2013C176.379 48.1187 173.043 45.3287 170.266 43.0015C167.49 40.6737 162.73 36.6944 159.689 34.1576C156.648 31.6214 153.62 29.05 152.958 28.4441C150.945 26.5988 146.973 24.1091 144.738 23.2903C142.599 22.507 134.981 21.9549 132.766 22.4225ZM107.25 26.0995C107.58 27.6396 107.776 28.9736 107.685 29.064C107.595 29.1548 106.44 28.718 105.118 28.0933C103.797 27.469 102.391 26.9376 101.995 26.9121C101.576 26.8852 102.281 25.9784 103.677 24.7478C105 23.583 106.209 22.78 106.366 22.9645C106.522 23.1485 106.92 24.5589 107.25 26.0995ZM111.493 23.8588L114.201 25.1389L112.065 26.9808C110.889 27.9938 109.791 28.8232 109.624 28.8237C109.457 28.8247 109.069 27.7982 108.761 26.5426C108.453 25.2869 108.089 23.8814 107.95 23.4191C107.607 22.2706 108.323 22.3595 111.493 23.8588ZM166.689 23.3975C166.516 23.8477 166.246 25.1514 166.09 26.2937C165.933 27.4359 165.618 28.4864 165.389 28.6281C164.884 28.9395 160.509 25.4426 160.906 25.0452C161.241 24.7108 166.002 22.68 166.592 22.62C166.818 22.5969 166.862 22.9467 166.689 23.3975ZM171.629 25.0697C172.466 25.7795 173.151 26.4614 173.151 26.5849C173.151 26.7079 172.556 27.0255 171.829 27.2898C171.101 27.5541 169.676 28.1269 168.66 28.5628L166.814 29.3552L167.137 27.7684C167.315 26.8963 167.669 25.3657 167.923 24.3681C168.436 22.36 168.431 22.359 171.629 25.0697ZM136.611 27.4638C136.611 29.6219 136.488 31.2653 136.338 31.1149C135.669 30.4465 131.803 24.7574 131.803 24.4417C131.803 23.9933 133.058 23.6661 135.049 23.595L136.611 23.5392V27.4638ZM141.78 23.842C142.374 24.0015 142.861 24.3124 142.861 24.5335C142.861 24.9885 138.57 31.2278 138.257 31.2278C138.145 31.2278 138.054 29.4979 138.054 27.3835V23.5392L139.376 23.546C140.103 23.5493 141.185 23.6829 141.78 23.842ZM129.164 29.6771L128.848 31.7867L127.221 29.9457C126.325 28.9328 125.584 27.9453 125.573 27.7511C125.562 27.5565 126.365 26.8818 127.356 26.2514L129.159 25.1053L129.32 26.3364C129.409 27.0135 129.338 28.5166 129.164 29.6771ZM148.63 27.1418C149.1 27.7084 148.917 28.2124 147.661 29.7968C146.808 30.8727 146.056 31.6886 145.988 31.6103C145.92 31.532 145.713 30.0169 145.529 28.2432L145.193 25.0183L146.621 25.7305C147.406 26.1221 148.31 26.7574 148.63 27.1418ZM133.444 29.5118C134.657 31.211 135.65 32.7247 135.65 32.8756C135.65 33.0265 134.46 33.15 133.005 33.15H130.361L130.366 31.5882C130.372 29.9395 130.874 26.4224 131.103 26.4224C131.177 26.4224 132.231 27.8126 133.444 29.5118ZM144.247 31.1077L144.304 33.15H141.631C139.624 33.15 139.047 33.0005 139.313 32.5493C139.508 32.2192 140.549 30.6867 141.625 29.1447C143.575 26.3518 143.584 26.346 143.887 27.7031C144.053 28.4522 144.216 29.9847 144.247 31.1077ZM107.235 30.5853C107.46 30.7554 103.338 34.543 102.896 34.5719C102.609 34.5906 102.329 33.5892 101.538 29.7112L101.179 27.9549L104.111 29.1975C105.724 29.8814 107.129 30.506 107.235 30.5853ZM172.983 31.2283C172.639 32.9155 172.157 34.3556 171.912 34.4292C171.426 34.5748 167.069 30.8713 167.411 30.6036C167.791 30.3066 173.388 27.9784 173.5 28.0712C173.56 28.1207 173.327 29.5416 172.983 31.2283ZM100.303 30.9875L100.61 32.9097L99.3817 31.4681C98.0282 29.8799 97.833 29.0207 98.7494 28.6848C99.6341 28.3605 99.9615 28.8458 100.303 30.9875ZM176.517 29.754C176.517 30.2081 175.976 31.0875 175.315 31.7084C173.956 32.9842 173.745 32.4239 174.63 29.8871C175.18 28.311 176.517 28.2163 176.517 29.754ZM125.689 30.5012L127.027 32.1769L125.777 31.7021C123.082 30.6781 122.568 30.2451 123.177 29.5123C123.984 28.5402 124.188 28.6204 125.689 30.5012ZM151.753 29.4748C152.299 30.0202 152.137 30.2509 150.741 30.9164C148.337 32.062 147.928 31.8972 149.195 30.2932C150.469 28.6819 150.841 28.5627 151.753 29.4748ZM179.882 32.2081C179.882 32.3556 179.071 32.7891 178.079 33.1711C177.088 33.5531 176.08 33.9501 175.842 34.0534C175.603 34.1562 176 33.4637 176.724 32.5152C177.87 31.0135 178.16 30.8645 178.961 31.3648C179.468 31.681 179.882 32.0601 179.882 32.2081ZM98.1201 32.5027C98.672 33.2038 99.0389 33.8616 98.936 33.965C98.7783 34.1221 95.5186 32.8088 94.7969 32.297C94.4839 32.0755 95.857 31.2442 96.5508 31.235C96.8623 31.2312 97.5686 31.8016 98.1201 32.5027ZM121.366 34.9553C121.747 36.6055 121.898 37.9553 121.703 37.9553C121.506 37.9553 120.111 37.4099 118.603 36.7429L115.86 35.5305L118.156 33.6334C119.42 32.5901 120.503 31.7857 120.563 31.8463C120.623 31.9063 120.984 33.3057 121.366 34.9553ZM125.299 32.8833C126.761 33.5296 127.957 34.1322 127.957 34.223C127.957 34.3138 126.983 35.2023 125.792 36.1975C123.629 38.0044 123.625 38.0053 123.217 36.8996C122.692 35.4777 122.105 31.7084 122.409 31.7084C122.536 31.7084 123.837 32.237 125.299 32.8833ZM152.735 32.5493C152.556 33.0116 152.175 34.4027 151.888 35.6401L151.366 37.89L149.638 36.6041C147.937 35.3378 147.201 34.5839 147.205 34.111C147.209 33.7891 151.583 31.8049 152.409 31.7511C152.838 31.7228 152.95 31.9952 152.735 32.5493ZM156.771 33.6185L158.901 35.4883L156.096 36.728C154.553 37.4099 153.187 37.864 153.061 37.7376C152.768 37.445 154.028 31.7011 154.379 31.729C154.523 31.7401 155.599 32.5906 156.771 33.6185ZM98.0283 35.3033C99.1519 35.7852 100.072 36.3374 100.072 36.5306C100.072 36.7242 99.1581 37.7069 98.0422 38.7151L96.0123 40.5478L95.4729 38.6507C95.1757 37.6074 94.7983 36.0611 94.6339 35.2139C94.3748 33.8799 94.4454 33.7242 95.1599 34.051C95.6138 34.2581 96.9047 34.8218 98.0283 35.3033ZM179.874 36.6079C178.951 40.5493 178.916 40.5675 176.348 38.4464L174.047 36.5464L177.085 35.1601C178.755 34.3979 180.201 33.8386 180.297 33.9169C180.393 33.9952 180.203 35.2062 179.874 36.6079ZM93.2824 35.913C93.5353 36.9044 93.8829 38.4051 94.0541 39.2485L94.3661 40.7823L92.4045 39.8347C91.3256 39.3138 89.8809 38.6742 89.1948 38.4133L87.9467 37.939L90.0424 36.0447C91.1953 35.0029 92.2925 34.1418 92.4805 34.1307C92.6689 34.1197 93.0295 34.9222 93.2824 35.913ZM184.665 36.0293L186.805 37.9063L185.513 38.397C184.803 38.667 183.339 39.3138 182.26 39.8347L180.299 40.7823L180.612 39.2485C181.155 36.5959 181.946 34.1101 182.242 34.1317C182.398 34.1427 183.489 34.9967 184.665 36.0293ZM114.843 39.9803C115.155 41.6228 115.315 43.0625 115.198 43.1792C114.962 43.4152 111.247 41.8852 110.26 41.1451C109.775 40.7823 110.108 40.2547 111.702 38.8544C112.842 37.8539 113.887 37.026 114.024 37.0149C114.162 37.0034 114.531 38.3383 114.843 39.9803ZM118.795 38.2605C121.146 39.2797 121.61 39.655 121.172 40.1826C120.873 40.5435 120.113 40.8386 119.485 40.8386C118.683 40.8386 118.341 41.1105 118.341 41.7482C118.341 42.2485 118.04 42.7732 117.673 42.9145C117.207 43.0928 116.852 42.5618 116.501 41.1639C115.754 38.1884 115.527 36.9943 115.711 36.9943C115.8 36.9943 117.189 37.5642 118.795 38.2605ZM158.993 38.3157C157.849 43.0509 157.726 43.3263 157.017 42.7371C156.636 42.421 156.323 41.8645 156.323 41.5007C156.323 41.1365 155.996 40.8386 155.596 40.8386C155.196 40.8386 154.431 40.5685 153.897 40.2379C152.996 39.6805 153.127 39.544 155.706 38.3527C159.234 36.7228 159.378 36.7213 158.993 38.3157ZM164.978 40.852C164.978 41.1514 160.21 43.2412 159.527 43.2412C159.316 43.2412 159.243 42.8626 159.365 42.4003C159.487 41.938 159.851 40.5425 160.175 39.2999L160.763 37.0399L162.87 38.8006C164.029 39.7694 164.978 40.692 164.978 40.852ZM131.758 38.6319C129.687 39.4263 126.849 40.8559 126.515 41.2725C126.383 41.4378 125.088 42.5425 123.639 43.7285C122.19 44.914 116.781 49.4272 111.619 53.7578C106.458 58.0884 101.163 62.5213 99.8538 63.6088C92.5031 69.7126 90.3482 71.8322 89.1255 74.1624C87.8692 76.5564 87.8178 76.9606 87.5784 86.3704L87.3308 96.1018L89.6145 96.1013C90.8703 96.1008 91.8627 95.9384 91.8194 95.7399C91.7309 95.3358 92.2507 93.1143 92.8589 91.295C93.08 90.6342 93.9445 87.8596 94.7796 85.1287C97.2686 76.9899 97.5148 76.6563 106.611 69.0946C111.08 65.3801 115.817 61.4176 117.139 60.2883C118.462 59.1595 122.14 56.0557 125.313 53.3912L131.082 48.5464L137.419 48.5368C141.901 48.53 143.94 48.7059 144.39 49.1379C144.739 49.4743 145.608 50.1985 146.32 50.7482C147.033 51.2974 148.764 52.729 150.167 53.9289C152.161 55.6348 163.391 65.0768 170.507 71.0312C171.036 71.4738 172.619 72.8005 174.026 73.9797C177.363 76.7779 178.641 79.652 182.531 93.097L183.4 96.1003L185.367 96.1013L187.334 96.1018L187.094 86.3704C186.773 73.3642 186.917 73.6708 177.238 65.554C174.064 62.8928 169.196 58.8111 166.42 56.4834C163.643 54.1557 159.533 50.7198 157.285 48.8481C155.037 46.9769 153.09 45.3277 152.958 45.1845C151.718 43.8371 147.214 40.5675 145.171 39.5325C143.027 38.4455 141.894 38.2182 138.054 38.1043C135.025 38.0149 132.904 38.1927 131.758 38.6319ZM136.521 43.518L136.371 45.2581L134.8 43.0216C132.718 40.0591 132.707 39.7131 134.688 39.4123C136.238 39.1769 136.383 39.26 136.521 40.4676C136.603 41.1884 136.603 42.5613 136.521 43.518ZM87.0226 42.9611C87.3245 44.5248 87.4808 45.8948 87.3697 46.0053C87.187 46.1879 85.3316 45.4642 82.3666 44.0529C81.2618 43.5272 81.2753 43.4983 83.5686 41.4974C84.8446 40.3844 86.0202 39.6185 86.1812 39.7958C86.3423 39.9726 86.7211 41.3974 87.0226 42.9611ZM91.3016 40.8621C94.1242 42.0558 94.1127 42.1687 90.8992 44.7126L89.0866 46.1475L88.5125 43.3854C88.1971 41.8659 87.8188 40.3095 87.6716 39.9265C87.4928 39.4604 87.6308 39.3229 88.0885 39.5113C88.4649 39.6661 89.9106 40.2739 91.3016 40.8621ZM142.045 39.7573C142.157 39.9558 141.304 41.3849 140.15 42.9337L138.054 45.7501V42.5733V39.3969H139.948C140.991 39.3969 141.934 39.5589 142.045 39.7573ZM186.829 40.9481C186.642 41.8016 186.246 43.3061 185.949 44.2917L185.411 46.0841L183.075 44.0711L180.739 42.0582L183.556 40.7646C187.172 39.1033 187.234 39.1067 186.829 40.9481ZM192.052 42.3253L193.438 43.5718L191.347 44.5454C188.33 45.95 187.094 46.2768 187.094 45.6689C187.094 45.383 187.454 43.8534 187.894 42.2706C188.79 39.05 188.405 39.0447 192.052 42.3253ZM130.361 43.2412C130.361 44.5627 130.199 45.6319 130.001 45.6175C129.802 45.6026 129.116 44.9289 128.475 44.1201L127.311 42.6492L128.475 41.7545C130.178 40.4464 130.361 40.5901 130.361 43.2412ZM146.235 41.6406L147.594 42.4431L146.353 44.0687C144.919 45.9481 144.323 45.5315 144.311 42.6406C144.303 40.5863 144.381 40.5459 146.235 41.6406ZM135.65 46.8083C135.65 46.9606 134.73 47.086 133.606 47.0865L131.563 47.0875L131.727 44.186L131.89 41.2845L133.77 43.9078C134.804 45.3508 135.65 46.6559 135.65 46.8083ZM143.195 46.913C143.066 47.0408 142.065 47.0783 140.969 46.9957L138.975 46.8453L140.798 44.247L142.621 41.6487L143.024 44.1643C143.246 45.5478 143.323 46.7847 143.195 46.913ZM114.892 44.9193C115.098 45.1245 112.522 47.468 111.294 48.1932C110.893 48.4306 110.553 48.3373 110.417 47.9529C110.15 47.2028 109.235 43.1499 109.218 42.6468C109.208 42.3325 114.375 44.4027 114.892 44.9193ZM165.06 45.4037C164.649 47.1216 164.177 48.5271 164.01 48.5271C163.844 48.5271 162.77 47.7246 161.624 46.7439L159.54 44.9611L162.379 43.6574C163.941 42.9404 165.351 42.3374 165.513 42.3172C165.675 42.2965 165.471 43.6857 165.06 45.4037ZM167.828 45.2119C166.459 47.1331 165.697 47.5267 166.149 46.0793C166.347 45.4435 166.624 44.3186 166.763 43.5795C167.004 42.3047 167.062 42.2768 167.908 43.0423C168.775 43.8261 168.772 43.8856 167.828 45.2119ZM107.928 43.6016C108.053 44.0639 108.296 45.0678 108.467 45.8323L108.778 47.2215L107.501 45.705C106.796 44.8669 106.347 43.8688 106.498 43.4743C106.871 42.5046 107.649 42.5738 107.928 43.6016ZM127.417 45.1346L128.161 46.2542L126.601 45.4483C125.743 45.0048 125.176 44.4234 125.341 44.1567C125.768 43.4657 126.554 43.8357 127.417 45.1346ZM149.464 44.5382C149.559 44.8217 148.975 45.2845 148.167 45.5661L146.698 46.0779L147.544 44.9159C148.4 43.7415 149.149 43.594 149.464 44.5382ZM79.8204 46.9654C80.0733 47.9567 80.4204 49.4565 80.5916 50.2989L80.9032 51.8304L77.691 50.5565L74.4794 49.2826L76.7881 47.223C78.0584 46.0904 79.1565 45.1634 79.2291 45.1634C79.3017 45.1634 79.5675 45.9745 79.8204 46.9654ZM84.2057 46.3844C85.3956 46.8496 86.5365 47.3758 86.7413 47.5536C86.9457 47.7314 86.0322 48.7881 84.7115 49.901C82.0407 52.1518 82.3921 52.3325 81.5686 48.2869C81.4075 47.494 81.1522 46.4339 81.0022 45.9318C80.8099 45.2878 80.9229 45.0947 81.3859 45.2782C81.7469 45.4214 83.0157 45.9193 84.2057 46.3844ZM106.112 46.679C107.226 47.8755 107.321 48.1182 106.562 47.8313C106.033 47.6314 104.999 47.2499 104.263 46.9841C103.193 46.5968 103.037 46.3666 103.48 45.8318C104.264 44.8885 104.52 44.9712 106.112 46.679ZM171.181 45.828C171.625 46.3623 171.377 46.6353 169.918 47.2211C167.661 48.1269 167.377 47.9039 168.826 46.3628C170.124 44.9818 170.422 44.914 171.181 45.828ZM193.659 46.0043C193.532 46.4666 193.172 47.975 192.86 49.3561L192.292 51.8669L189.918 49.8366L187.544 47.8063L190.324 46.5084C193.645 44.9582 193.959 44.9106 193.659 46.0043ZM198.996 48.1538L200.081 49.3162L197.073 50.5545C195.419 51.2359 194.011 51.7429 193.945 51.6814C193.878 51.6199 194.178 50.1346 194.611 48.3806L195.398 45.1913L196.655 46.0913C197.346 46.5867 198.399 47.5147 198.996 48.1538ZM123.805 49.3263L124.109 51.3268L121.656 50.2912L119.204 49.2556L121.03 47.678C123.069 45.9174 123.309 46.0605 123.805 49.3263ZM127.221 47.0788L129.448 48.0332L127.798 49.4815C126.89 50.2782 126.024 50.9298 125.873 50.9298C125.577 50.9298 124.599 47.7126 124.595 46.7251C124.591 45.9524 124.592 45.9529 127.221 47.0788ZM149.994 48.1667C149.743 49.2898 149.378 50.37 149.183 50.5665C148.988 50.7636 148.088 50.3066 147.182 49.5507L145.536 48.1773L147.444 47.172C150.269 45.6838 150.528 45.7842 149.994 48.1667ZM154.35 48.2283L155.502 49.4589L154.23 49.9539C153.531 50.2263 152.393 50.6694 151.702 50.9385C150.508 51.4037 150.461 51.3652 150.763 50.1619C150.938 49.4652 151.205 48.2782 151.356 47.5238C151.669 45.9582 152.383 46.1259 154.35 48.2283ZM101.681 49.8486C101.843 50.84 102.114 52.2484 102.283 52.9788C102.631 54.4829 102.46 54.4704 98.6754 52.7155L96.5585 51.7338L98.6754 49.9044C99.8399 48.8986 100.926 48.0687 101.09 48.061C101.253 48.0529 101.52 48.8578 101.681 49.8486ZM106.2 49.3849C107.323 49.8381 108.242 50.345 108.243 50.5118C108.245 50.8938 104.308 54.3628 104.103 54.1586C104.02 54.0754 103.635 52.6487 103.248 50.9885C102.456 47.5988 102.166 47.7564 106.2 49.3849ZM171.98 49.1278C171.803 49.7227 171.533 51.0202 171.38 52.011C171.226 53.0024 170.859 53.8049 170.563 53.7948C169.907 53.7732 166.11 50.5814 166.431 50.3215C166.796 50.0264 171.425 48.1283 171.885 48.0855C172.114 48.0639 172.157 48.5329 171.98 49.1278ZM175.555 49.5046C175.687 49.6458 176.378 50.2081 177.09 50.7535L178.383 51.7448L176.128 52.7218C172.406 54.333 172.099 54.3921 172.347 53.4498C172.468 52.9889 172.836 51.5819 173.163 50.3234C173.76 48.0346 174.077 47.926 175.555 49.5046ZM123.63 52.9068C123.63 53.1307 123.11 53.445 122.473 53.6045C121.837 53.7641 121.195 54.3589 121.047 54.9265C120.88 55.5627 120.617 55.7775 120.361 55.4868C119.991 55.0663 118.822 51.4911 118.822 50.7804C118.822 50.6276 119.904 50.9519 121.226 51.5012C122.548 52.0504 123.63 52.6828 123.63 52.9068ZM155.311 53.3599C154.761 55.9241 154.758 55.9279 153.902 54.8717C153.43 54.2893 152.852 53.8131 152.617 53.8131C152.381 53.8131 151.916 53.543 151.582 53.2124C151.096 52.7304 151.433 52.4089 153.289 51.5858C154.561 51.0216 155.661 50.6117 155.733 50.6747C155.804 50.7381 155.614 51.9462 155.311 53.3599ZM73.389 53.8131L73.7404 55.4949L72.4827 54.3301C71.1456 53.0922 70.8302 51.6281 71.8254 51.2806C72.561 51.0236 72.9312 51.6233 73.389 53.8131ZM77.703 52.011C79.1632 52.606 80.3584 53.2283 80.3589 53.395C80.3599 53.9034 75.9977 57.3027 75.7111 57.0163C75.2106 56.5156 74.226 50.9298 74.6385 50.9298C74.864 50.9298 76.2429 51.4161 77.703 52.011ZM118.221 53.2119C118.508 54.4666 118.648 55.5887 118.532 55.7049C118.415 55.8212 117.303 55.4229 116.061 54.8193L113.801 53.7218L115.47 52.3388C116.389 51.5781 117.265 50.95 117.419 50.9428C117.573 50.9356 117.934 51.9567 118.221 53.2119ZM159.043 52.1557C159.927 52.8299 160.651 53.544 160.651 53.7419C160.651 53.9404 159.55 54.5675 158.204 55.136C156.044 56.048 155.797 56.0735 156.088 55.3512C156.27 54.9019 156.534 53.7232 156.674 52.7319C156.815 51.741 157.044 50.9298 157.183 50.9298C157.321 50.9298 158.158 51.4815 159.043 52.1557ZM200.227 52.4916C200.06 53.3508 199.675 54.7813 199.372 55.6713L198.821 57.2888L196.523 55.3013L194.225 53.3138L196.789 52.1494C200.274 50.5675 200.596 50.5997 200.227 52.4916ZM203.201 51.7203C203.636 52.1552 203.807 52.642 203.579 52.8015C203.353 52.9615 202.662 53.741 202.045 54.5339L200.924 55.9755L201.257 54.2936C201.701 52.0452 202.026 50.9298 202.237 50.9298C202.332 50.9298 202.766 51.2854 203.201 51.7203ZM96.0027 59.4819C95.8931 59.591 94.4868 59.1715 92.8776 58.5488L89.952 57.4171L92.2473 55.4238L94.5425 53.4306L95.3719 56.3565C95.8282 57.9659 96.1118 59.3724 96.0027 59.4819ZM100.038 54.9169L102.168 55.9048L100.038 57.7463L97.9081 59.5872L97.3484 58.247C97.0407 57.5094 96.6378 56.0994 96.4527 55.1134C96.072 53.087 96.0907 53.086 100.038 54.9169ZM178.452 54.654C178.221 55.3806 177.898 56.7866 177.734 57.7775C177.569 58.7688 177.282 59.5732 177.096 59.566C176.909 59.5584 175.801 58.702 174.632 57.6626C172.511 55.7756 172.509 55.7727 173.671 55.3162C174.311 55.0649 175.591 54.5243 176.517 54.1148C178.806 53.1019 178.932 53.137 178.452 54.654ZM181.805 54.6876C181.805 54.8856 182.454 55.4306 183.247 55.8991C184.041 56.3676 184.689 56.9005 184.689 57.0841C184.688 57.5295 179.349 59.6881 179.032 59.371C178.896 59.2345 179.059 57.8275 179.395 56.2441C179.945 53.6564 180.097 53.4137 180.906 53.8462C181.4 54.111 181.805 54.4897 181.805 54.6876ZM71.625 55.7069C72.4625 56.7487 73.1476 57.6968 73.1476 57.814C73.1476 58.0519 66.7647 57.6242 66.47 57.3666C66.1161 57.0576 68.8695 53.8131 69.4859 53.8131C69.8244 53.8131 70.7874 54.6655 71.625 55.7069ZM207.089 55.5079C207.8 56.4402 208.298 57.2801 208.195 57.3743C207.918 57.6285 201.517 57.9774 201.517 57.7386C201.517 57.233 204.703 53.8899 205.219 53.8539C205.536 53.8313 206.378 54.5757 207.089 55.5079ZM112.77 57.8303L113.098 59.2047L111.914 57.8303C111.026 56.7986 110.862 56.2989 111.255 55.8251C111.868 55.0865 112.23 55.5656 112.77 57.8303ZM116.246 56.245L118.558 57.2354L116.647 58.8433L114.736 60.4517L114.144 58.2133C113.224 54.7357 113.067 54.8832 116.246 56.245ZM160.819 57.5372C160.658 58.7929 160.392 59.9639 160.227 60.1398C160.064 60.3157 159.101 59.7367 158.087 58.8534L156.245 57.2475L158.327 56.2917C159.473 55.766 160.568 55.3176 160.762 55.295C160.955 55.2729 160.981 56.2816 160.819 57.5372ZM163.179 57.5266C162.287 58.8875 161.829 58.2926 162.306 56.3931C162.555 55.4012 162.742 55.2772 163.297 55.7366C163.884 56.2244 163.868 56.4757 163.179 57.5266ZM110.783 58.6237C111.982 60.0245 111.818 60.1432 109.925 59.2412C108.762 58.6867 108.427 58.3195 108.844 58.0552C109.71 57.505 109.862 57.5492 110.783 58.6237ZM165.907 58.3902C165.85 58.6477 165.138 59.1379 164.326 59.4791L162.85 60.0999L164.006 58.8693C165.124 57.6795 166.121 57.4286 165.907 58.3902ZM184.487 61.6641C184.134 63.185 183.74 64.5329 183.613 64.6602C183.283 64.9899 179.432 61.8251 179.565 61.3325C179.666 60.9558 184.803 58.5757 185.03 58.8001C185.086 58.8544 184.841 60.1432 184.487 61.6641ZM73.6284 59.8034C73.6284 60.6915 72.1139 63.9043 71.6956 63.9043C71.4196 63.9043 70.7547 63.2003 67.9522 59.9399C67.2738 59.1509 67.4267 59.099 70.4287 59.099C72.9192 59.099 73.6284 59.2551 73.6284 59.8034ZM88.9395 61.7871C89.2832 63.2652 89.4481 64.591 89.3063 64.7328C88.9419 65.097 83.7249 62.9231 83.7249 62.407C83.7249 62.1734 83.8869 61.9817 84.0855 61.9817C84.284 61.9812 85.0951 61.345 85.8884 60.5675C86.6817 59.79 87.5519 59.1417 87.8226 59.1264C88.0928 59.1115 88.5952 60.3085 88.9395 61.7871ZM93.4868 60.2258L95.796 61.3435L93.6459 63.1047C92.4636 64.073 91.3881 64.8654 91.2564 64.8654C91.0266 64.8654 89.9751 60.5065 89.9751 59.556C89.9751 58.8284 91.0059 59.025 93.4868 60.2258ZM189.277 60.8755L191.404 62.6516L188.407 63.9361C186.759 64.6429 185.372 65.1922 185.325 65.1571C185.225 65.0836 186.1 60.592 186.389 59.6996C186.675 58.8154 186.941 58.924 189.277 60.8755ZM207.287 59.3498C207.287 59.7424 203.358 63.9043 202.988 63.9043C202.555 63.9043 201.037 60.7121 201.037 59.8034C201.037 59.2566 201.737 59.099 204.162 59.099C205.88 59.099 207.287 59.2119 207.287 59.3498ZM69.0152 63.3205L69.9311 64.3849H67.2123C64.6521 64.3849 64.4934 64.3166 64.4934 63.2148C64.4934 62.5713 64.7214 61.4454 65.0002 60.7126L65.5069 59.381L66.8031 60.8183C67.5162 61.6088 68.5114 62.7347 69.0152 63.3205ZM210.101 61.9077C210.645 64.3263 210.409 64.5151 207.118 64.2936L204.907 64.1446L207.119 61.8424C208.335 60.5761 209.4 59.6093 209.484 59.6939C209.569 59.778 209.846 60.7746 210.101 61.9077ZM107.163 62.3421C107.45 63.5968 107.608 64.7011 107.514 64.7953C107.315 64.9942 102.956 63.3839 102.956 63.1114C102.956 62.8395 106.038 60.0903 106.361 60.074C106.515 60.0663 106.876 61.0869 107.163 62.3421ZM110.522 60.901C111.647 61.3632 112.569 61.8784 112.57 62.0452C112.571 62.2124 111.813 62.9274 110.885 63.6348C109.07 65.0187 109.143 65.0692 108.31 61.8621C107.771 59.789 107.793 59.7794 110.522 60.901ZM166.74 60.7467C166.595 61.1244 166.332 62.2056 166.154 63.1494C165.977 64.0932 165.694 64.8568 165.525 64.8457C165.356 64.8351 164.477 64.1931 163.571 63.4185L161.923 62.011L164.052 61.0461C166.596 59.8923 167.089 59.8371 166.74 60.7467ZM171.709 62.9995C171.709 63.1624 170.614 63.7501 169.277 64.3056C167.084 65.2167 166.87 65.2345 167.091 64.4896C167.226 64.0355 167.484 63.0153 167.666 62.2225C167.847 61.4296 168.086 60.6194 168.196 60.4219C168.405 60.0499 171.709 62.4743 171.709 62.9995ZM88.9736 66.6184C89.2121 66.8198 85.56 70.1023 85.0658 70.1311C84.7542 70.1494 84.3499 68.9144 83.46 65.2287L83.1412 63.9106L85.9572 65.1802C87.5058 65.8784 88.863 66.5257 88.9736 66.6184ZM190.935 66.813C190.666 68.234 190.255 69.5867 190.023 69.8188C189.78 70.0615 188.744 69.4685 187.589 68.4248L185.577 66.6088L188.379 65.3282C189.92 64.6242 191.236 64.0889 191.303 64.1384C191.37 64.1883 191.205 65.3921 190.935 66.813ZM82.2397 66.3536C82.5643 67.4368 82.7455 68.407 82.6421 68.5103C82.2416 68.9111 80.2969 65.7217 80.5459 65.0725C81.0113 63.8606 81.6335 64.3315 82.2397 66.3536ZM101.514 66.0639C101.514 66.6919 101.725 67.7602 101.983 68.4382C102.272 69.197 102.278 69.6708 101.999 69.6708C101.612 69.6708 98.3119 68.2931 97.7004 67.876C97.3109 67.6098 100.703 64.4214 101.109 64.6722C101.332 64.8097 101.514 65.4358 101.514 66.0639ZM105.961 65.8745C107.397 66.4464 107.31 67.2681 105.813 67.2681C105.299 67.2681 104.879 67.566 104.879 67.9303C104.879 68.294 104.568 68.8505 104.187 69.1667C103.61 69.6453 103.442 69.4343 103.183 67.9038C103.012 66.8937 102.769 65.69 102.643 65.2297C102.448 64.5194 102.581 64.4651 103.526 64.8707C104.138 65.1335 105.234 65.5853 105.961 65.8745ZM171.895 66.6674C171.521 67.9231 171.135 69.1662 171.038 69.4305C170.941 69.6948 170.625 69.3161 170.336 68.5896C170.025 67.8106 169.442 67.2681 168.916 67.2681C167.096 67.2681 167.396 66.5459 169.639 65.5204C170.91 64.9399 172.09 64.4469 172.262 64.4248C172.435 64.4027 172.27 65.4118 171.895 66.6674ZM177.478 67.6059C177.478 67.926 173.02 69.7001 172.791 69.4709C172.668 69.3479 172.842 68.172 173.179 66.8577L173.792 64.4685L175.635 65.9485C176.649 66.7631 177.478 67.5084 177.478 67.6059ZM194.209 64.9894C194.575 65.43 194.338 66.0485 193.334 67.2719L191.957 68.95L192.399 67.0278C192.642 65.9706 192.845 64.9437 192.852 64.7453C192.869 64.1811 193.655 64.3224 194.209 64.9894ZM68.3397 66.6453C67.9431 66.7895 66.9156 67.3306 66.056 67.8476L64.4934 68.788V67.5478C64.4934 66.3825 64.6329 66.3094 66.7772 66.345C68.033 66.3656 68.7364 66.5012 68.3397 66.6453ZM210.566 67.6285C210.757 68.9754 210.724 68.9735 208.177 67.4949L206.085 66.2806L208.248 66.4137C210.077 66.5266 210.435 66.7145 210.566 67.6285ZM70.7177 69.5824C70.2763 71.6405 70.0609 71.9716 69.3854 71.6323C68.9426 71.4098 67.8229 70.9082 66.8974 70.5175L65.2146 69.8077L68.0993 68.345C69.6859 67.5406 71.0427 66.9375 71.1143 67.0053C71.186 67.0725 71.0076 68.2325 70.7177 69.5824ZM80.8402 71.012C79.9147 71.0889 78.342 70.9807 77.3454 70.7717L75.5328 70.3916L77.0718 68.5261L78.6107 66.6607L80.5671 68.7664L82.5229 70.8721L80.8402 71.012ZM197.721 70.7534C196.85 70.9788 195.308 71.098 194.294 71.0177L192.449 70.8721L194.212 68.7933L195.975 66.714L197.639 68.529L199.303 70.3435L197.721 70.7534ZM207.159 70.8995C205.775 71.4661 204.579 71.8812 204.503 71.8221C204.426 71.7625 204.191 70.6251 203.98 69.294L203.598 66.8741L206.637 68.3719L209.676 69.8697L207.159 70.8995ZM96.1917 71.7664C96.221 72.5473 96.1085 72.5165 95.3055 71.5261C94.6089 70.6669 94.5156 70.2345 94.9224 69.7443C95.3618 69.2138 95.5219 69.2571 95.8085 69.9846C96.0003 70.4728 96.1729 71.2743 96.1917 71.7664ZM99.5812 69.9634C100.644 70.3882 101.514 70.9096 101.514 71.122C101.514 71.7991 98.5052 74.0653 98.1407 73.6621C97.7244 73.2018 97.0705 69.1902 97.4119 69.1902C97.5417 69.1902 98.5182 69.5382 99.5812 69.9634ZM177.736 70.0312C177.557 70.4935 177.29 71.4714 177.142 72.2037C176.767 74.0586 176.488 74.0994 174.614 72.5713L172.969 71.2287L174.863 70.2306C177.249 68.9735 178.17 68.9096 177.736 70.0312ZM180.352 70.0826C180.346 70.2527 179.894 70.9322 179.346 71.5929C178.635 72.4507 178.431 72.5425 178.635 71.9139C178.792 71.43 178.92 70.6256 178.92 70.1273C178.92 69.5185 179.157 69.3113 179.642 69.4968C180.038 69.6492 180.358 69.9125 180.352 70.0826ZM67.1185 72.2796L69.022 73.0696L67.1185 74.2383C66.0714 74.8812 65.0526 75.4142 64.854 75.4223C64.6555 75.4305 64.4934 74.4512 64.4934 73.2465C64.4934 72.0417 64.6555 71.1532 64.854 71.2724C65.0526 71.3921 66.0714 71.8452 67.1185 72.2796ZM95.3363 74.8433C94.8998 74.9129 93.6281 74.8048 92.5107 74.603L90.479 74.2359L91.7204 72.6534L92.9622 71.0706L94.5464 72.8937C95.8147 74.3531 95.9724 74.7419 95.3363 74.8433ZM210.652 73.5607V76.0091L208.369 74.6919C207.113 73.9673 205.999 73.3027 205.894 73.2147C205.703 73.0533 209.623 71.2095 210.292 71.1465C210.49 71.1278 210.652 72.2142 210.652 73.5607ZM183.204 72.974L184.188 74.3551L181.739 74.6799C180.391 74.8587 179.168 74.8836 179.019 74.7352C178.721 74.4372 181.294 71.5929 181.862 71.5929C182.059 71.5929 182.663 72.2143 183.204 72.974ZM82.6508 72.7621C82.8119 72.9226 82.5229 73.9216 82.009 74.9821L81.0748 76.9096L78.6738 74.4339L76.2727 71.9577L79.3156 72.2138C80.9892 72.3546 82.4902 72.6011 82.6508 72.7621ZM198.152 72.234C198.152 72.6448 194.398 76.3983 193.988 76.3983C193.605 76.3983 191.902 73.4694 191.902 72.8116C191.902 72.7068 192.389 72.5271 192.983 72.4127C194.343 72.1508 198.152 72.0192 198.152 72.234ZM77.1982 77.2681C74.0981 77.4733 73.5409 77.1859 73.9014 75.5679C74.6428 72.2431 74.5135 72.2748 77.0665 74.7832L79.444 77.1191L77.1982 77.2681ZM201.015 76.2782C201.035 77.2709 200.82 77.3594 198.392 77.3594C196.938 77.3594 195.748 77.2465 195.748 77.1085C195.748 76.9702 196.663 75.8644 197.783 74.6511L199.817 72.4449L200.405 73.8212C200.728 74.5776 201.003 75.6837 201.015 76.2782ZM69.27 77.0437L68.7152 79.2474L66.7719 78.2566L64.8286 77.2657L67.1719 75.8976C68.4609 75.1455 69.585 74.5997 69.6706 74.6847C69.7557 74.7703 69.5753 75.8313 69.27 77.0437ZM208.606 77.9341C206.674 79.3935 205.928 79.3277 205.595 77.6679C205.428 76.8375 205.177 75.7544 205.037 75.2613C204.816 74.4819 205.104 74.5444 207.234 75.7419L209.685 77.1191L208.606 77.9341ZM96.1532 77.3603C95.3988 79.5223 94.8503 79.5732 92.9362 77.6602L91.1929 75.9178H93.9248H96.6561L96.1532 77.3603ZM181.805 77.5996C180.908 78.5247 180.04 79.2815 179.877 79.2815C179.713 79.2815 179.218 78.5247 178.777 77.5996L177.974 75.9178H180.705H183.436L181.805 77.5996ZM91.7391 78.2003L93.3478 80.0023L91.3708 80.1527C90.2838 80.2354 89.2827 80.1912 89.1462 80.0547C88.8217 79.7303 89.4486 76.3983 89.8342 76.3983C89.9972 76.3983 90.8544 77.2095 91.7391 78.2003ZM185.651 78.5891C185.651 80.2392 185.647 80.2426 183.39 80.2426H181.129L182.988 78.3401C184.01 77.294 185.027 76.5501 185.249 76.6866C185.47 76.8236 185.651 77.6794 185.651 78.5891ZM66.5777 81.5501C64.7218 83.0345 64.4934 82.9447 64.4934 80.7308V78.8163L66.2171 79.6381L67.9412 80.4598L66.5777 81.5501ZM210.652 80.9918C210.652 83.3397 210.673 83.3353 208.067 81.529L206.684 80.5708L208.308 79.7058C209.2 79.2306 210.094 78.8322 210.292 78.8212C210.49 78.8101 210.652 79.7871 210.652 80.9918ZM76.0323 80.2426C73.8894 81.4151 73.6284 81.4151 73.6284 80.2426C73.6284 79.4291 73.9423 79.2844 75.6717 79.3017L77.7151 79.3219L76.0323 80.2426ZM201.037 80.2426C201.037 81.3969 201.081 81.392 199.187 80.4478C197.251 79.4824 197.28 79.2815 199.354 79.2815C200.716 79.2815 201.037 79.4646 201.037 80.2426ZM198.845 84.5963C197.837 85.628 196.897 86.3574 196.758 86.2171C196.617 86.0773 196.264 85.0538 195.973 83.9437C195.682 82.8332 195.277 81.4257 195.073 80.8154C194.71 79.726 194.756 79.7327 197.691 81.2137L200.677 82.7207L198.845 84.5963ZM79.681 81.0254C79.5156 81.456 79.1425 82.7534 78.8512 83.9086C78.5603 85.0638 78.1555 86.0091 77.9516 86.0091C77.7477 86.0091 76.7862 85.3022 75.8145 84.4382L74.0486 82.8673L76.3626 81.5823C79.0718 80.0778 80.1118 79.9033 79.681 81.0254ZM90.9367 82.405C89.388 83.2897 89.0135 83.2897 89.0135 82.405C89.0135 81.9086 89.5001 81.6895 90.5761 81.701L92.1386 81.7183L90.9367 82.405ZM185.651 82.405C185.651 83.2897 185.277 83.2897 183.728 82.405L182.526 81.7183L184.089 81.701C185.165 81.6895 185.651 81.9086 185.651 82.405ZM68.0239 84.207C67.6258 86.3363 67.2767 86.6054 66.0363 85.7371C64.6632 84.776 64.6973 84.4809 66.2964 83.4901C68.146 82.344 68.3556 82.431 68.0239 84.207ZM93.629 83.8255C93.2276 85.4247 92.443 87.4507 92.2252 87.4507C91.7199 87.4507 89.3385 85.0436 89.5929 84.7894C90.0626 84.3199 93.0564 82.7034 93.5127 82.6727C93.7401 82.6578 93.792 83.1763 93.629 83.8255ZM183.619 83.7635L185.673 84.8385L184.014 86.4454L182.356 88.0523L181.813 86.0393C181.515 84.9327 181.152 83.7159 181.006 83.3358C180.648 82.4041 181.19 82.4925 183.619 83.7635ZM208.294 83.4699C209.965 84.456 210.014 84.7669 208.651 85.7217C207.314 86.6573 206.957 86.4012 206.715 84.3315C206.487 82.3776 206.465 82.3896 208.294 83.4699ZM76.6213 87.2104C77.1612 87.9374 76.8843 88.368 75.1828 89.4444L73.6284 90.4281V87.4142V84.3997L74.9462 85.565C75.6712 86.2056 76.4251 86.9461 76.6213 87.2104ZM201.037 87.4834V90.3992L199.474 89.3209C198.615 88.7279 197.818 88.1691 197.704 88.0797C197.512 87.9293 200.563 84.5674 200.89 84.5674C200.971 84.5674 201.037 85.8798 201.037 87.4834ZM66.5685 88.2301C66.52 88.4622 66.0334 88.9485 65.4868 89.3113C64.5425 89.9384 64.4934 89.8822 64.4934 88.1715C64.4934 86.4132 64.518 86.3887 65.5752 87.0903C66.1699 87.4853 66.6171 87.998 66.5685 88.2301ZM90.7184 89.9221C90.0938 90.4127 89.4549 90.8144 89.2981 90.8144C89.1419 90.8144 89.0135 89.801 89.0135 88.5621V86.3099L90.4338 87.6698L91.8535 89.0292L90.7184 89.9221ZM210.652 88.4262V90.3627L209.24 89.3195L207.829 88.2762L208.88 87.3988C210.406 86.1254 210.652 86.2686 210.652 88.4262ZM185.43 90.7159C185.273 90.8731 184.68 90.5377 184.113 89.9706L183.082 88.9403L184.247 87.9927L185.411 87.0451L185.563 88.7375C185.647 89.6688 185.586 90.5588 185.43 90.7159ZM200.556 92.4704C200.556 92.8163 200.254 93.3497 199.886 93.6554C199.34 94.108 199.076 93.8038 198.467 92.0167L197.719 89.8216L199.137 90.8312C199.917 91.3867 200.556 92.1239 200.556 92.4704ZM66.5454 92.1359C66.2757 93.9072 65.7209 94.1311 64.9896 92.7649C64.5872 92.0134 64.6949 91.689 65.5444 91.0941C66.8325 90.1926 66.8402 90.2003 66.5454 92.1359ZM76.0203 93.2392L75.4674 94.2719L74.7515 93.2508C74.0957 92.3147 74.1294 92.1527 75.1544 91.3171C76.2448 90.4276 76.2766 90.4276 76.4232 91.3055C76.5059 91.801 76.3246 92.6712 76.0203 93.2392ZM209.56 91.4204C209.982 91.7457 210.012 92.1369 209.664 92.787C208.929 94.159 208.376 93.887 208.161 92.0494C207.971 90.4261 208.162 90.3406 209.56 91.4204ZM91.2083 91.8956C90.4982 94.2753 90.4698 94.3075 89.6794 93.652C88.9895 93.0797 89.0188 92.9331 89.9789 92.1561C91.2391 91.1364 91.4477 91.0922 91.2083 91.8956ZM184.909 92.036C185.764 92.6823 185.78 92.814 185.09 93.5035C184.4 94.1936 184.286 94.1282 183.815 92.7779C183.244 91.1412 183.497 90.9692 184.909 92.036Z" fill="#E3E3E3"/>
</svg>
